# xmcd
#
# Track frame offsets:
# 150
# 15974
# 32964
# 54854
#
# Disc length: 1147 seconds
#
#
# Revision: 0
# Processed by: cddbd v1.5.1PL0 Copyright (c) Steve Scherf et al.
# Submitted via: FreeRIP 2.90 
#
DISCID=22047904
DTITLE=Salter Cane - Salter Cane
DYEAR=2004
DGENRE=Alt. Rock
TTITLE0=Long Gone
TTITLE1=The Other Side
TTITLE2=Love Stranger Than This
TTITLE3=Wicked Boy
EXTD=
EXTT0=
EXTT1=
EXTT2=
EXTT3=
PLAYORDER=
